# xmcd
#
# Track frame offsets: 
#        150
#        15263
#        29962
#        47764
#        64743
#        82034
#        98105
#        118882
#        135257
#        154486
#        173410
#
# Disc length: 2473 seconds
#
# Revision: 0
# Processed by: cddbd v1.4PL0 Copyright (c) Steve Scherf et al.
# Submitted via: ExactAudioCopy v0.90b3
#
DISCID=8c09a70b
DTITLE=Max Stalling - One of the Ways
DYEAR=2002
DGENRE=Slacker Country
TTITLE0=Ain't Falling in Love(w/ You Tonight)
TTITLE1=Something to See
TTITLE2=The Beatles and The Thunder
TTITLE3=The Pila Song
TTITLE4=Lying Here at 3
TTITLE5=One of the Ways
TTITLE6=Lay My Burdens Down
TTITLE7=And It's True
TTITLE8=From Dancing to a Waltz
TTITLE9=Probably Corsicana
TTITLE10=The Girl By The Lake
EXTD=
EXTT0=
EXTT1=
EXTT2=
EXTT3=
EXTT4=
EXTT5=
EXTT6=
EXTT7=
EXTT8=
EXTT9=
EXTT10=
PLAYORDER=
